<svg version="1" xmlns="http://www.w3.org/2000/svg" width="709.333" height="709.333" viewBox="0 0 532.000000 532.000000"><path d="M78.8 170.9c-40.5 8.7-69.6 38.5-77.5 79.6C-.2 257.9.6 282 2.4 289c5 18.8 12.1 32 24.1 44.8 12 12.9 29.1 23.5 44.2 27.4 13.9 3.6 17 3.7 88.3 3.7 66.2 0 71-.1 79.5-1.9 9.1-2 21.2-6.2 25.2-8.8 2-1.2 2.7-1.1 6 .6 6 3.1 11.2 5.1 19.3 7.4 7.3 2.1 9.2 2.2 81.5 2.4 70.7.3 74.4.2 83.5-1.7 9-1.9 26.1-8.3 26.8-10.1.2-.4 1-.8 1.7-.8 1.8 0 12.9-8.3 19.8-14.9 12.3-11.6 22.3-28.9 26.8-46.1 3.3-12.6 3.3-34.9 0-47.5-10.1-38.5-39.8-66.1-78.6-73.1-6.5-1.1-21.3-1.4-78-1.4-42.9.1-71.9.5-75 1.1-2.7.6-6.1 1.2-7.4 1.5-4 .8-13.2 4.1-18.9 6.7l-5.4 2.5-6.4-3c-3.5-1.6-10.3-4.2-15.2-5.6l-8.7-2.6-74-.3c-68.9-.2-74.6-.1-82.7 1.6zm153.4 37.4c1.5.8 1.3 1.5-2.1 6.5-6 9.1-10.4 20-13.8 34.7-.2 1.1-.6 7.4-.9 14-.8 21.1 4.9 41.5 16 57.7l2.5 3.8-2.7.7c-1.5.5-34.4.8-73.2.8-69.9 0-70.6 0-77.5-2.2-23.8-7.5-40.5-28.6-42.1-53.2-.5-7.8.1-13.2 3-24.2 1.8-6.7 11.4-20.3 18.5-26.2 4.9-4 16.9-10.4 21.1-11.2 1.4-.3 4.1-.9 6-1.4 4.4-1.1 142.9-.9 145.2.2zm219.8 1.4c13.8 4.7 26 14.4 33.1 26.3 5.9 10.1 7.7 15.7 8.5 28 1.7 23-11.5 45.7-32.8 56.5-13.2 6.6-13.5 6.6-90.3 6.3-37.9-.2-69.8-.7-70.7-1.1-1.6-.8-1.6-1.2.6-4 4.9-6.6 12.3-23.3 14-31.7.2-1.4.9-4.6 1.4-7.3 1.8-8.9 1.2-26.2-1.3-37.1-3-13.2-9.5-28-15.3-34.8-1.3-1.5-1.1-1.8 1.4-2.3 1.6-.4 3.4-.8 3.9-1 .6-.2 32.5-.3 71-.2 69.4.2 70.1.2 76.5 2.4zm-181.7 26.5c11.9 20 11.1 45.5-1.8 64.6l-2.3 3.3-2.6-3.3c-9.6-12.7-13.1-35.4-7.8-51.8 2.1-6.2 8.9-19 10.2-19 .3 0 2.3 2.8 4.3 6.2z"/></svg>